<svg width="40" height="40" viewBox="0 0 40 40" fill="none" xmlns="http://www.w3.org/2000/svg">
<g clip-path="url(#clip0_51_265)">
<path d="M7.57817 14.4529C9.9944 14.4529 11.9531 12.4942 11.9531 10.0779C11.9531 7.66171 8.39887 4.03939 8.39887 4.03939C7.94746 3.57932 7.20888 3.57932 6.75739 4.03939C6.75739 4.03939 3.20312 7.66171 3.20312 10.0779C3.2032 12.4942 5.16194 14.4529 7.57817 14.4529Z" fill="#03A4FF"/>
<path d="M31.5229 29.5081C31.5229 29.5081 27.9688 33.1304 27.9688 35.5466C27.9688 37.9628 29.9275 39.9997 32.3437 39.9997C34.7599 39.9997 36.7187 37.9628 36.7187 35.5466C36.7187 33.1304 33.1645 29.5081 33.1645 29.5081C32.7131 29.0481 31.9744 29.0481 31.5229 29.5081Z" fill="#03A4FF"/>
<path d="M15.625 23.8281C16.3585 23.8281 16.9531 23.2335 16.9531 22.5C16.9531 21.7665 16.3585 21.1719 15.625 21.1719C14.8915 21.1719 14.2969 21.7665 14.2969 22.5C14.2969 23.2335 14.8915 23.8281 15.625 23.8281Z" fill="#03A4FF"/>
<path d="M29.8499 27.867C31.221 26.4694 33.4658 26.4692 34.8372 27.8669C34.8629 27.8931 35.2557 28.295 35.7857 28.9179C36.4495 27.0864 36.7965 25.1327 36.7965 23.1251C36.7965 11.8376 21.5808 0.554762 21.4275 0.448122C20.5673 -0.150389 19.4292 -0.14828 18.5723 0.447887C18.5079 0.492653 15.8006 2.49912 12.676 5.64503C13.7648 7.3126 14.2967 8.76985 14.2967 10.0782C14.2967 13.7829 11.2827 16.7969 7.57801 16.7969C6.62021 16.7969 5.70928 16.594 4.88397 16.2313C3.85257 18.4635 3.20312 20.7943 3.20312 23.1251C3.20312 32.4474 10.6967 39.9999 19.9999 39.9999C22.2384 39.9999 24.4087 39.5641 26.4154 38.7328C25.8993 37.7602 25.6249 36.6724 25.6249 35.5468C25.6249 34.0129 26.3554 32.2746 27.8579 30.2325C28.8337 28.9065 29.8089 27.9088 29.8499 27.867ZM14.2967 25.9223V28.75C14.2967 29.3972 13.772 29.9219 13.1248 29.9219C12.4777 29.9219 11.953 29.3972 11.953 28.75V20.0001C11.953 19.3529 12.4777 18.8282 13.1248 18.8282C13.4686 18.8282 13.7769 18.9771 13.9912 19.213C16.4162 18.0027 19.2967 19.773 19.2967 22.5001C19.2967 25.0777 16.6958 26.8566 14.2967 25.9223ZM26.8747 26.172C26.2276 26.172 25.7029 25.6473 25.7029 25.0001V22.5001C25.7029 21.7679 25.1071 21.172 24.3748 21.172C23.6424 21.172 23.0466 21.7679 23.0466 22.5001V25.0001C23.0466 25.6473 22.522 26.172 21.8748 26.172C21.2276 26.172 20.7029 25.6473 20.7029 25.0001V16.2502C20.7029 15.603 21.2276 15.0783 21.8748 15.0783C22.522 15.0783 23.0466 15.603 23.0466 16.2502V19.0779C25.4478 18.1428 28.0466 19.9254 28.0466 22.5001V25.0001C28.0466 25.6473 27.5219 26.172 26.8747 26.172Z" fill="#03A4FF"/>
</g>
<defs>
<clipPath id="clip0_51_265">
<rect width="40" height="40" fill="white"/>
</clipPath>
</defs>
</svg>
