<svg width="40" height="40" viewBox="0 0 40 40" fill="none" xmlns="http://www.w3.org/2000/svg">
<path d="M36.5354 24.2563C34.5129 22.8502 31.7146 21.7091 28.5348 20.9795C28.6141 22.1184 28.4625 23.2308 28.0932 24.2701C32.0708 25.3865 34.3197 27.2467 34.3197 29.4749C34.3197 31.3446 32.6836 33.0029 29.7128 34.1442C27.0955 35.1497 23.6404 35.7035 19.9838 35.7035C16.3272 35.7035 12.8721 35.1497 10.2549 34.1442C7.28406 33.0029 5.64797 31.3446 5.64797 29.4749C5.64797 27.2451 7.89951 25.3841 11.8817 24.268C11.5151 23.2357 11.3599 22.1272 11.4288 20.9878C8.25879 21.7189 5.46978 22.8595 3.45443 24.2632C0.599297 26.2521 0 28.1875 0 29.4609C0 30.6042 0.466528 31.7348 1.38647 32.8216C2.34973 33.9594 3.75166 34.9927 5.55322 35.8928C9.39253 37.811 14.5232 38.8674 20 38.8674C25.4768 38.8674 30.6074 37.811 34.4467 35.8928C36.2483 34.9927 37.6502 33.9594 38.6134 32.8216C39.5335 31.7348 39.9999 30.6042 39.9999 29.4609C40 28.1855 39.3989 26.2473 36.5354 24.2563Z" fill="#03A4FF"/>
<path d="M7.98975 29.4743C7.98975 30.2583 9.20856 31.2331 11.0948 31.9577C13.4506 32.8628 16.6075 33.3612 19.984 33.3612C23.3604 33.3612 26.5174 32.8628 28.8732 31.9577C30.7594 31.2331 31.9783 30.2583 31.9783 29.4743C31.9783 28.5441 30.2565 27.2311 26.9572 26.3902C25.3952 28.5267 22.6424 29.9308 20.0203 29.9138C17.3441 29.9131 14.6576 28.5843 13.0166 26.3887C9.71341 27.2295 7.98975 28.5432 7.98975 29.4743Z" fill="#03A4FF"/>
<path d="M20.0203 27.5728C23.5322 27.4992 26.6841 24.6068 26.1504 20.6835C25.7786 18.0507 23.0375 14.6448 20.9622 12.5005C20.4465 11.9652 19.5858 11.972 19.0795 12.5163C7.94099 23.814 17.4402 27.7113 20.0203 27.5728Z" fill="#03A4FF"/>
<path d="M20.6007 8.83104C22.7115 8.48886 24.1453 6.50031 23.8031 4.38948C23.4609 2.27866 21.4724 0.844888 19.3615 1.18707C17.2507 1.52925 15.8169 3.5178 16.1591 5.62863C16.5013 7.73945 18.4899 9.17322 20.6007 8.83104Z" fill="#03A4FF"/>
</svg>
