<svg width="40" height="40" viewBox="0 0 40 40" fill="none" xmlns="http://www.w3.org/2000/svg">
<g clip-path="url(#clip0_51_263)">
<path d="M38.6526 33.244C38.0491 32.298 36.5012 30.2969 36.5012 30.2969C36.5012 30.2969 34.9533 32.2979 34.3498 33.244C33.1421 35.1371 33.0024 36.0096 33.0024 36.5012C33.0024 38.4303 34.572 39.9998 36.5012 39.9998C38.4303 39.9999 39.9999 38.4304 39.9999 36.5013C39.9999 36.0097 39.8602 35.1372 38.6526 33.244Z" fill="#03A4FF"/>
<path d="M24.5178 19.6874H8.94984C6.57305 19.6874 4.3993 18.7464 2.79516 17.2295L0 19.986L14.5195 34.4668L26.2828 22.7034C25.2776 22.0544 24.592 20.952 24.5178 19.6874Z" fill="#03A4FF"/>
<path d="M8.94984 17.3431H24.5104V13.7188L15.4079 4.61633L4.45383 15.5704C3.1568 14.3639 2.34375 12.6441 2.34375 10.737C2.34375 7.09438 5.30727 4.13086 8.94984 4.13086H12.4649L14.7829 1.78711H8.94984C4.01492 1.78719 0 5.80203 0 10.737C0 13.2901 1.07508 15.5964 2.79578 17.2284L4.4525 15.5717C5.63234 16.6706 7.21406 17.3431 8.94984 17.3431Z" fill="#03A4FF"/>
<path d="M24.5102 6.11773L18.3924 0L16.8613 2.75586L24.5102 10.4048V6.11773Z" fill="#03A4FF"/>
<path d="M35.2605 24.6043V16.8683L26.854 8.46191V19.3112C26.854 20.4719 27.7949 21.4129 28.9556 21.4129C30.1163 21.4129 31.0573 20.4719 31.0573 19.3112V24.6043C31.0573 25.765 31.9982 26.706 33.1589 26.706C34.3196 26.706 35.2605 25.765 35.2605 24.6043Z" fill="#03A4FF"/>
</g>
<defs>
<clipPath id="clip0_51_263">
<rect width="40" height="40" fill="white"/>
</clipPath>
</defs>
</svg>
