<svg width="40" height="40" viewBox="0 0 40 40" fill="none" xmlns="http://www.w3.org/2000/svg">
<path d="M34.2861 18.0887C36.4594 20.2609 37.6564 23.1527 37.6564 26.2323C37.6564 29.312 36.4594 32.2039 34.2861 34.3759L35.9432 36.033C38.5594 33.4181 40.0002 29.938 40.0002 26.2323C40.0002 22.5267 38.5594 19.0466 35.9432 16.4316L34.2861 18.0887Z" fill="#03A4FF"/>
<path d="M32.6288 32.7191C34.3592 30.9888 35.3125 28.6851 35.3125 26.2326C35.3125 23.7801 34.3592 21.4764 32.6288 19.7461L30.9717 21.4032C32.2592 22.6906 32.9687 24.4061 32.9687 26.2326C32.9687 28.0591 32.2592 29.7745 30.9717 31.062L32.6288 32.7191Z" fill="#03A4FF"/>
<path d="M5.71406 34.376C3.54078 32.2039 2.34375 29.312 2.34375 26.2323C2.34375 23.1527 3.54078 20.2608 5.71406 18.0887L4.05695 16.4316C1.44078 19.0466 0 22.5268 0 26.2323C0 29.9379 1.44078 33.4181 4.05695 36.033L5.71406 34.376Z" fill="#03A4FF"/>
<path d="M7.37117 19.7461C5.64078 21.4764 4.6875 23.7802 4.6875 26.2326C4.6875 28.685 5.64078 30.9888 7.37117 32.7191L9.02828 31.062C7.74078 29.7745 7.03125 28.0591 7.03125 26.2326C7.03125 24.4061 7.74078 22.6906 9.02828 21.4032L7.37117 19.7461Z" fill="#03A4FF"/>
<path d="M25.7518 31.9846C25.7987 31.9762 25.8459 31.98 25.8927 31.9705C28.1495 31.5162 30.0999 29.6141 30.5222 27.3436C30.9055 25.2802 30.2029 23.2295 28.6408 21.8596C27.5811 20.9292 26.8026 19.7997 26.5347 18.5946L23.9965 7.17227C23.5776 5.28516 21.9343 3.9668 20.0002 3.9668C18.0661 3.9668 16.4228 5.28516 16.004 7.17227L13.4657 18.5946C13.1979 19.7997 12.4194 20.9292 11.3608 21.8584C9.79755 23.2295 9.0949 25.2802 9.47826 27.3436C9.90052 29.6141 11.8509 31.5161 14.1065 31.9705C14.1536 31.9799 14.2012 31.9748 14.2484 31.9827C14.1846 31.637 14.1408 31.2837 14.1408 30.9198V29.748H16.4846V30.9198C16.4846 32.8782 18.0979 34.4355 20.0002 34.4355C21.9033 34.4355 23.5158 32.8787 23.5158 30.9198V29.748H25.8596V30.9198C25.8595 31.2845 25.8159 31.6383 25.7518 31.9846Z" fill="#03A4FF"/>
</svg>
