<svg width="40" height="40" viewBox="0 0 40 40" fill="none" xmlns="http://www.w3.org/2000/svg">
<path d="M36 28C34.3488 28 32.6992 28.2724 31.1276 28.8164C29.112 29.5116 26.8892 29.5128 24.8708 28.8152C21.7276 27.7292 18.268 27.7276 15.128 28.8164C13.1112 29.5116 10.8888 29.5128 8.8708 28.8152C7.3 28.2724 5.6504 28 4 28V36H36V28Z" fill="#03A4FF"/>
<path d="M14.6668 26.1732V22.6668H25.3336V26.172C25.4692 26.2148 25.6072 26.2472 25.7424 26.2944C26.4648 26.544 27.2252 26.672 28 26.672V9.3332C28 7.8604 29.1924 6.6664 30.6668 6.6664C32.1408 6.6664 33.3332 7.8604 33.3332 9.3332H36C36 6.388 33.6132 4 30.6668 4C27.72 4 25.3332 6.388 25.3332 9.3332V13.3332H14.6668V9.3332C14.6668 7.8604 15.8596 6.6664 17.3336 6.6664C18.8076 6.6664 20.0004 7.8604 20.0004 9.3332H22.6672C22.6668 6.388 20.28 4 17.3332 4C14.3864 4 12 6.388 12 9.3332V26.672C12.7748 26.672 13.5352 26.546 14.2592 26.296C14.3932 26.2488 14.5312 26.216 14.6668 26.1732ZM14.6668 16H25.3336V20H14.6668V16Z" fill="#03A4FF"/>
</svg>
