<svg width="40" height="40" viewBox="0 0 40 40" fill="none" xmlns="http://www.w3.org/2000/svg">
<g clip-path="url(#clip0_51_266)">
<path d="M22.1963 34.8727L25.1095 35.8053L24.4796 32.8359L22.1963 34.8727Z" fill="#03A4FF"/>
<path d="M20.6666 19.9998C20.6666 20.3679 20.3679 20.6666 19.9998 20.6666C19.6318 20.6666 19.333 20.3679 19.333 19.9998C19.333 19.6318 19.6318 19.333 19.9998 19.333C20.3679 19.333 20.6666 19.6318 20.6666 19.9998Z" fill="#03A4FF"/>
<path d="M20 0C8.95416 0 0 8.95416 0 20C0 31.0458 8.95416 40 20 40C31.0458 40 40 31.0458 40 20C40 8.95416 31.0458 0 20 0ZM26.2439 34.7293L26.6525 36.6525C26.7282 37.0129 26.4972 37.3663 26.1371 37.442C26.0251 37.4652 25.9091 37.4597 25.7999 37.4252L20.6821 35.7861C20.3311 35.6744 20.137 35.2997 20.2487 34.9487C20.2847 34.8346 20.3513 34.7324 20.4407 34.6527L24.4519 31.0745C24.7269 30.8295 25.1483 30.8536 25.3934 31.1282C25.4706 31.2149 25.524 31.3205 25.5481 31.434L25.9641 33.3932C33.3536 30.094 36.6693 21.4285 33.3701 14.039C30.0705 6.64917 21.4053 3.33344 14.0155 6.633C6.62598 9.93256 3.31024 18.5977 6.6098 25.9875C8.21838 29.5905 11.2125 32.3926 14.9139 33.7595L18.764 21.5594C18.028 20.9897 17.7939 19.9811 18.2034 19.1452L12.8653 13.8068C12.6096 13.5419 12.6169 13.1198 12.8818 12.8641C13.14 12.6144 13.5498 12.6144 13.808 12.8641L19.1428 18.2001C19.4098 18.0698 19.7028 18.0014 20 17.9999C21.1044 17.9944 22.0047 18.8852 22.0102 19.9896C22.016 21.0944 21.1252 21.9943 20.0208 22.0001L15.9799 34.8047C15.9305 34.9609 15.8252 35.0937 15.6839 35.1773C15.5756 35.2411 15.452 35.275 15.3259 35.2753C15.2597 35.2753 15.1938 35.2652 15.1306 35.2454C6.70654 32.561 2.05383 23.5559 4.73816 15.1318C7.42249 6.70776 16.4276 2.05505 24.8514 4.73938C33.2755 7.42371 37.9285 16.4288 35.2441 24.8529C33.8272 29.2996 30.5402 32.9065 26.2439 34.7293ZM30.6668 20C30.6668 19.632 30.9653 19.3332 31.3333 19.3332H32.6666C33.035 19.3332 33.3334 19.632 33.3334 20C33.3334 20.368 33.035 20.6668 32.6666 20.6668H31.3333C30.9653 20.6668 30.6668 20.368 30.6668 20ZM20.6668 7.33337V8.66669C20.6668 9.03473 20.368 9.33319 20 9.33319C19.632 9.33319 19.3332 9.03473 19.3332 8.66669V7.33337C19.3332 6.96503 19.632 6.66656 20 6.66656C20.368 6.66656 20.6668 6.96503 20.6668 7.33337ZM9.33319 20C9.33319 20.368 9.03473 20.6668 8.66669 20.6668H7.33337C6.96503 20.6668 6.66656 20.368 6.66656 20C6.66656 19.632 6.96503 19.3332 7.33337 19.3332H8.66669C9.03473 19.3332 9.33319 19.632 9.33319 20Z" fill="#03A4FF"/>
</g>
<defs>
<clipPath id="clip0_51_266">
<rect width="40" height="40" fill="white"/>
</clipPath>
</defs>
</svg>
