<svg width="40" height="40" viewBox="0 0 40 40" fill="none" xmlns="http://www.w3.org/2000/svg">
<path d="M34.3701 6.77135C32.0224 5.81722 29.8499 4.47892 27.9418 2.81135C27.4104 2.34086 26.7248 2.0817 26.0151 2.08301H13.9851C13.2754 2.0817 12.5898 2.34086 12.0584 2.81135C10.1495 4.47878 7.97652 5.81705 5.62842 6.77135C5.07704 6.98412 4.60273 7.35841 4.26759 7.84521C3.93244 8.33202 3.75208 8.90866 3.75009 9.49968V20.0997C3.74054 22.81 4.49081 25.4687 5.91575 27.7741C7.3407 30.0796 9.38328 31.9396 11.8118 33.143L13.9568 34.2147C15.3201 34.8974 16.6197 35.7006 17.8401 36.6147L19.2501 37.673C19.4665 37.8353 19.7296 37.923 20.0001 37.923C20.2706 37.923 20.5337 37.8353 20.7501 37.673L22.1601 36.6163C23.3797 35.7016 24.6788 34.8978 26.0418 34.2147L28.1884 33.143C30.6169 31.9396 32.6595 30.0796 34.0844 27.7741C35.5094 25.4687 36.2596 22.81 36.2501 20.0997V9.49968C36.248 8.90847 36.0674 8.33168 35.7319 7.84486C35.3964 7.35803 34.9218 6.98386 34.3701 6.77135ZM27.4484 15.9763L19.1151 22.643C18.8927 22.8195 18.6173 22.9158 18.3334 22.9163C18.1693 22.9165 18.0067 22.8841 17.8551 22.8212C17.7035 22.7583 17.5659 22.666 17.4501 22.5497L14.1168 19.2163C13.896 18.9794 13.7758 18.666 13.7815 18.3421C13.7872 18.0183 13.9184 17.7093 14.1474 17.4803C14.3764 17.2513 14.6854 17.1201 15.0092 17.1144C15.3331 17.1087 15.6465 17.2289 15.8834 17.4497L18.4268 19.9997L25.8851 14.0313C26.1453 13.8372 26.4707 13.7517 26.7927 13.7929C27.1147 13.8341 27.4081 13.9989 27.611 14.2523C27.8138 14.5058 27.9103 14.8281 27.8799 15.1514C27.8496 15.4746 27.6949 15.7734 27.4484 15.9847V15.9763Z" fill="#03A4FF"/>
</svg>
