<svg width="40" height="40" viewBox="0 0 40 40" fill="none" xmlns="http://www.w3.org/2000/svg">
<path d="M10.1552 11.0039L8.33589 12.9803C8.09643 13.239 7.96587 13.5801 7.97136 13.9324C7.98447 14.914 8.0284 16.8325 8.1672 18.5298L9.03232 16.0964C9.46823 14.8783 10.5496 14.0071 11.8324 13.84C11.8159 13.4782 11.9465 13.1249 12.1945 12.861L16.0121 9.42254L18.7234 6.81955C19.4982 6.03314 19.519 4.77694 18.7704 3.96551L18.8137 3.90969C18.7945 3.89261 18.7765 3.87461 18.76 3.85509L18.7131 3.90206C18.4431 3.63942 18.013 3.63942 17.743 3.90206L14.3569 7.07305C14.3252 7.11057 14.2892 7.14412 14.2502 7.17371L10.2022 10.9618C10.1872 10.9768 10.1717 10.9908 10.1552 11.0039Z" fill="#03A4FF"/>
<path d="M13.2051 13.8042H15.2626C15.1928 13.2093 15.1711 12.6099 15.1974 12.0117L13.2051 13.8042Z" fill="#03A4FF"/>
<path d="M12.5369 3.37536C12.1486 2.99069 11.6242 2.77441 11.0776 2.77441C10.6969 2.77441 10.3882 3.08312 10.3882 3.46382V8.89858L13.1455 6.31786V4.84234C13.1446 4.29234 12.9259 3.76491 12.5369 3.37536Z" fill="#03A4FF"/>
<path d="M26.4822 17.9407C25.0552 16.8929 22.5114 14.8109 21.4565 12.6945C20.1329 10.0472 21.0844 8.10347 21.7805 6.69018C22.339 5.55967 22.5251 5.04932 22.1874 4.53257C21.8192 3.86116 21.0301 3.54146 20.2985 3.7672C21.0011 5.09935 20.7552 6.7335 19.6918 7.79995L16.7551 10.5988C16.5446 11.6545 16.5098 12.7375 16.6517 13.8045H18.2096C18.6385 13.8073 19.0567 13.9394 19.4093 14.1837L22.9802 16.7135C23.4811 17.0722 23.7807 17.6485 23.7868 18.2647C23.7868 18.6124 23.6913 18.9532 23.511 19.2506C23.4695 19.3195 23.4143 19.3885 23.3661 19.4574L24.3106 20.1328C25.1144 20.716 25.3416 21.8157 24.8346 22.6696C24.352 23.4786 23.5586 24.0539 22.6398 24.261C21.721 24.4681 20.7573 24.2894 19.9746 23.7659L18.5958 22.8419C18.4835 22.7675 18.3511 22.7291 18.2166 22.7318H16.0934C15.7979 22.7269 15.5331 22.9136 15.4385 23.1936C15.397 23.3385 15.3351 23.5176 15.2591 23.7174C14.5353 25.7167 14.294 27.1367 15.4522 27.6056C15.7808 27.763 15.9302 28.1489 15.7936 28.4865C15.6566 28.8239 15.2805 28.9969 14.9352 28.881C12.3087 27.8261 13.4667 24.6207 13.9633 23.2489C14.0252 23.0695 14.0871 22.9109 14.1286 22.78C14.3998 21.9252 15.1963 21.3466 16.0934 21.353H18.2166C18.6238 21.3514 19.0222 21.4716 19.3608 21.6977L20.7396 22.6214C21.2085 22.9362 21.7863 23.0436 22.3369 22.9182C22.8875 22.7931 23.3622 22.4463 23.6489 21.9597C23.7944 21.7239 23.731 21.4155 23.504 21.2566L20.326 18.9748C19.9752 18.7268 19.5561 18.5944 19.1265 18.5956H13.7013C12.8261 18.595 12.0461 19.1481 11.7572 19.9742L8.80674 28.3502C8.59961 28.9389 8.81131 29.5933 9.3238 29.9496L20.4846 37.6014C21.0493 37.9873 21.3873 38.627 21.3876 39.3112C21.3867 39.493 21.458 39.6681 21.5859 39.7975C21.714 39.9265 21.8882 39.9997 22.0703 40.0003H32.0936C32.3038 40.0009 32.502 39.9042 32.6314 39.7386C32.7622 39.5736 32.8104 39.3576 32.7622 39.1526L31.7559 35.4368C31.3685 33.6654 31.2522 31.8454 31.4112 30.0389C31.9349 23.4279 27.3989 18.6164 26.4822 17.9407ZM24.8206 35.8297C24.4399 35.8297 24.1315 35.521 24.1315 35.1403C24.1315 32.7206 20.002 30.811 18.4164 30.2735C18.0888 30.1311 17.9243 29.762 18.0372 29.423C18.1501 29.0844 18.5033 28.888 18.8508 28.9707C19.1195 29.06 25.51 31.2387 25.51 35.1403C25.51 35.521 25.2016 35.8297 24.8206 35.8297ZM27.5712 30.3147C25.2138 30.3147 23.4625 28.6671 22.408 27.2816C22.1978 26.9784 22.2634 26.5635 22.5568 26.3402C22.8506 26.1166 23.2679 26.1642 23.504 26.4476C24.3728 27.5781 25.7791 28.9362 27.5712 28.9362C27.9519 28.9362 28.2606 29.2446 28.2606 29.6256C28.2606 30.0063 27.9519 30.3147 27.5712 30.3147Z" fill="#03A4FF"/>
<path d="M7.88331 26.5048L7.97269 26.5655L10.4546 19.5134C10.9399 18.1367 12.2397 17.2155 13.6994 17.213H19.1247C19.8418 17.2124 20.5413 17.4373 21.124 17.8555L22.2435 18.6565C22.2725 18.6172 22.3042 18.5772 22.3283 18.5373C22.3771 18.4537 22.4024 18.3582 22.4012 18.2615C22.3985 18.0916 22.3143 17.9336 22.1746 17.8369L18.6097 15.3111C18.4929 15.2284 18.3538 15.1836 18.2107 15.1826H12.2952C11.4164 15.1787 10.6303 15.7284 10.3325 16.5554L7.35985 24.9201C7.14814 25.5058 7.36442 26.1604 7.88331 26.5048Z" fill="#03A4FF"/>
<path d="M23.9792 0.230797L23.3221 0.920208C23.1428 1.09683 23.0738 1.35704 23.1422 1.59925C23.2108 1.84146 23.4057 2.02723 23.6513 2.08367C23.8965 2.1401 24.1531 2.05835 24.3206 1.87013L24.9773 1.18072C25.157 1.0044 25.2259 0.74389 25.1576 0.501681C25.089 0.259472 24.894 0.0736972 24.6485 0.0175681C24.4032 -0.0388659 24.1467 0.0428872 23.9792 0.230797Z" fill="#03A4FF"/>
<path d="M26.3921 2.84918L25.4959 3.10145C25.164 3.19449 24.9517 3.51815 24.9987 3.8598C25.046 4.20115 25.3379 4.45526 25.6826 4.45465C25.746 4.45496 25.8092 4.44611 25.8702 4.42872L26.7664 4.17706C27.1331 4.07364 27.3466 3.69294 27.2435 3.32627C27.1401 2.9596 26.7594 2.74607 26.3928 2.84918H26.3921Z" fill="#03A4FF"/>
<path d="M25.8467 7.70928C25.9077 7.72666 25.9709 7.73521 26.0343 7.7349C26.3787 7.7346 26.67 7.48018 26.717 7.13914C26.7637 6.79779 26.5514 6.47444 26.2198 6.3817L25.3235 6.12943C24.9569 6.02632 24.5762 6.24016 24.4731 6.60683C24.3703 6.97319 24.5838 7.3542 24.9505 7.457L25.8467 7.70928Z" fill="#03A4FF"/>
</svg>
