<svg width="38" height="57" viewBox="0 0 38 57" fill="none" xmlns="http://www.w3.org/2000/svg">
<path d="M21.5 3.16675C21.5 1.78604 20.3807 0.666748 19 0.666748C17.6193 0.666748 16.5 1.78604 16.5 3.16675H21.5ZM17.2322 55.7678C18.2085 56.7442 19.7915 56.7442 20.7678 55.7678L36.6777 39.8579C37.654 38.8816 37.654 37.2987 36.6777 36.3224C35.7014 35.3461 34.1184 35.3461 33.1421 36.3224L19 50.4646L4.85786 36.3224C3.88155 35.3461 2.29864 35.3461 1.32233 36.3224C0.34602 37.2987 0.34602 38.8816 1.32233 39.8579L17.2322 55.7678ZM16.5 3.16675V54.0001H21.5V3.16675H16.5Z" fill="white"/>
</svg>
