<svg width="34" height="34" viewBox="0 0 34 34" fill="none" xmlns="http://www.w3.org/2000/svg">
<path d="M23.9833 0.333374H10.0167C3.95001 0.333374 0.333344 3.95004 0.333344 10.0167V23.9667C0.333344 30.05 3.95001 33.6667 10.0167 33.6667H23.9667C30.0333 33.6667 33.65 30.05 33.65 23.9834V10.0167C33.6667 3.95004 30.05 0.333374 23.9833 0.333374ZM27.8833 17.8834L20.7333 25.0334C20.4833 25.2834 20.1667 25.4 19.85 25.4C19.5333 25.4 19.2167 25.2834 18.9667 25.0334C18.4833 24.55 18.4833 23.75 18.9667 23.2667L23.9833 18.25H7.00001C6.31668 18.25 5.75001 17.6834 5.75001 17C5.75001 16.3167 6.31668 15.75 7.00001 15.75H23.9833L18.9667 10.7334C18.4833 10.25 18.4833 9.45004 18.9667 8.96671C19.45 8.48337 20.25 8.48337 20.7333 8.96671L27.8833 16.1167C28.1167 16.35 28.25 16.6667 28.25 17C28.25 17.3334 28.1167 17.65 27.8833 17.8834Z" fill="white"/>
</svg>
