<svg width="24" height="24" viewBox="0 0 24 24" fill="none" xmlns="http://www.w3.org/2000/svg">
<g clip-path="url(#clip0_295_2284)">
<path d="M13.9092 10.069C12.6625 8.82174 11.9726 7.16675 11.9622 5.40511H6.44003L5.57426 1.68305L0.883891 0.0722656L0.019165 2.59005L3.31527 3.72204L5.65945 13.8006L6.46157 17.3446H20.4179L21.8083 11.2017C20.8596 11.7226 19.7713 12.0195 18.6145 12.0195C16.8369 12.0189 15.1658 11.3263 13.9092 10.069Z" fill="white"/>
<path d="M9.1238 24C10.5718 24 11.7457 22.8262 11.7457 21.3782C11.7457 19.9302 10.5718 18.7563 9.1238 18.7563C7.67579 18.7563 6.50195 19.9302 6.50195 21.3782C6.50195 22.8262 7.67579 24 9.1238 24Z" fill="white"/>
<path d="M17.7556 24C19.2036 24 20.3775 22.8262 20.3775 21.3782C20.3775 19.9302 19.2036 18.7563 17.7556 18.7563C16.3076 18.7563 15.1338 19.9302 15.1338 21.3782C15.1338 22.8262 16.3076 24 17.7556 24Z" fill="white"/>
<path d="M18.6149 10.7294C18.6154 10.7294 18.6159 10.7294 18.6165 10.7294C21.5785 10.7294 23.9799 8.3282 23.9808 5.36616C23.9815 2.40355 21.5805 0 18.6178 0C18.6178 0 18.6168 0 18.6163 0C15.6542 0 13.2528 2.40121 13.252 5.36325C13.251 8.32586 15.6521 10.7294 18.6149 10.7294ZM16.8596 4.90794L17.8786 5.92699L20.3731 3.43244L21.2859 4.34517L17.8786 7.75228L15.9468 5.8205L16.8596 4.90794Z" fill="white"/>
</g>
<defs>
<clipPath id="clip0_295_2284">
<rect width="24" height="24" fill="white"/>
</clipPath>
</defs>
</svg>
