<svg width="24" height="24" viewBox="0 0 24 24" fill="none" xmlns="http://www.w3.org/2000/svg">
<g clip-path="url(#clip0_104_2858)">
<path d="M23.3488 20.2027C23.766 20.6199 24.0004 21.1858 24.0004 21.7758C24.0004 22.3658 23.766 22.9316 23.3488 23.3488C22.9316 23.766 22.3658 24.0004 21.7758 24.0004C21.1858 24.0004 20.6199 23.766 20.2027 23.3488L12.3595 15.5054C12.2642 15.4101 12.1348 15.3565 12 15.3565C11.8651 15.3565 11.7358 15.4101 11.6404 15.5054L3.79715 23.3488C3.37931 23.7629 2.81445 23.9947 2.22615 23.9934C1.63785 23.9921 1.07402 23.7578 0.658027 23.3419C0.242033 22.9259 0.00774936 22.362 0.00643906 21.7737C0.00512875 21.1854 0.236899 20.6206 0.651036 20.2027L8.4944 12.3597C8.54162 12.3124 8.57908 12.2564 8.60463 12.1947C8.63019 12.133 8.64334 12.0669 8.64334 12.0001C8.64334 11.9333 8.63019 11.8672 8.60463 11.8055C8.57908 11.7438 8.54162 11.6878 8.4944 11.6406L0.651083 3.79715C0.233889 3.37995 -0.000488281 2.81412 -0.000488281 2.22411C-0.000488281 1.63411 0.233889 1.06828 0.651083 0.651083C1.06828 0.233889 1.63411 -0.000488281 2.22411 -0.000488281C2.81412 -0.000488281 3.37995 0.233889 3.79715 0.651083L11.6404 8.49463C11.7358 8.58995 11.8651 8.6435 12 8.6435C12.1348 8.6435 12.2641 8.58995 12.3595 8.49463L20.2027 0.651083C20.6199 0.233889 21.1858 -0.000488248 21.7758 -0.000488241C22.3658 -0.000488233 22.9316 0.233889 23.3488 0.651083C23.766 1.06828 24.0004 1.63411 24.0004 2.22411C24.0004 2.81412 23.766 3.37995 23.3488 3.79715L15.5054 11.6406C15.4582 11.6878 15.4208 11.7438 15.3952 11.8055C15.3696 11.8672 15.3565 11.9333 15.3565 12.0001C15.3565 12.0669 15.3696 12.133 15.3952 12.1947C15.4208 12.2564 15.4582 12.3124 15.5054 12.3597L23.3488 20.2027Z" fill="#3C424A"/>
</g>
<defs>
<clipPath id="clip0_104_2858">
<rect width="24" height="24" fill="white"/>
</clipPath>
</defs>
</svg>
