<svg width="35" height="34" viewBox="0 0 35 34" fill="none" xmlns="http://www.w3.org/2000/svg">
<path d="M24.4835 0.333252H10.5168C4.45016 0.333252 0.833496 3.94992 0.833496 10.0166V23.9666C0.833496 30.0499 4.45016 33.6666 10.5168 33.6666H24.4668C30.5335 33.6666 34.1502 30.0499 34.1502 23.9833V10.0166C34.1668 3.94992 30.5502 0.333252 24.4835 0.333252ZM27.5002 18.2499H10.5168L15.5335 23.2666C16.0168 23.7499 16.0168 24.5499 15.5335 25.0333C15.2835 25.2833 14.9668 25.3999 14.6502 25.3999C14.3335 25.3999 14.0168 25.2833 13.7668 25.0333L6.61683 17.8833C6.3835 17.6499 6.25016 17.3333 6.25016 16.9999C6.25016 16.6666 6.3835 16.3499 6.61683 16.1166L13.7668 8.96659C14.2502 8.48325 15.0502 8.48325 15.5335 8.96659C16.0168 9.44992 16.0168 10.2499 15.5335 10.7333L10.5168 15.7499H27.5002C28.1835 15.7499 28.7502 16.3166 28.7502 16.9999C28.7502 17.6833 28.1835 18.2499 27.5002 18.2499Z" fill="white"/>
</svg>
