<svg width="40" height="24" viewBox="0 0 40 24" fill="none" xmlns="http://www.w3.org/2000/svg">
<path d="M5.7734 19.5256H9.26559C9.22653 19.7443 9.2057 19.9683 9.2057 20.1974C9.2057 20.4266 9.22653 20.6506 9.26559 20.8693H5.276C4.90621 20.8693 4.60413 20.5672 4.60413 20.1974C4.60413 20.0177 4.67444 19.8485 4.80204 19.7209C4.92965 19.5933 5.09631 19.5229 5.27861 19.5229L5.7734 19.5256Z" fill="white"/>
<path d="M12.9348 19.4033C13.3723 19.4033 13.7291 19.7601 13.7291 20.1976C13.7291 20.6351 13.3723 20.9919 12.9348 20.9919C12.4973 20.9919 12.1406 20.6351 12.1406 20.1976C12.1406 19.7601 12.4973 19.4033 12.9348 19.4033Z" fill="white"/>
<path d="M12.9349 17.1143C14.6354 17.1143 16.0208 18.4971 16.0208 20.2002C16.0208 21.9007 14.638 23.2861 12.9349 23.2861C11.2318 23.2861 9.84894 21.9033 9.84894 20.2002C9.85154 18.4971 11.2344 17.1143 12.9349 17.1143ZM14.375 20.1976C14.375 19.4033 13.7292 18.7575 12.9349 18.7575C12.1406 18.7575 11.4948 19.4033 11.4948 20.1976C11.4948 20.9919 12.1406 21.6377 12.9349 21.6377C13.7292 21.6377 14.375 20.9919 14.375 20.1976Z" fill="white"/>
<path d="M27.2995 5.27312V18.8799H16.4245C15.8906 17.4711 14.5286 16.4685 12.9349 16.4685C11.3411 16.4685 9.97913 17.4737 9.44528 18.8799H6.09631V14.2575H9.35153C9.52861 14.2575 9.67445 14.1117 9.67445 13.9346C9.67445 13.7575 9.53122 13.6117 9.35153 13.6117H6.09631V10.8773H14.6067C14.7838 10.8773 14.9297 10.7315 14.9297 10.5544C14.9297 10.3773 14.7864 10.2315 14.6067 10.2315H6.09631V4.11687H9.67705C9.85413 4.11687 9.99997 3.97364 9.99997 3.79395C9.99997 3.61687 9.85674 3.47103 9.67705 3.47103H6.09631V0.71582H27.2995V5.27312ZM16.6198 13.9346C16.6198 13.7575 16.4765 13.6117 16.2969 13.6117H11.5078C11.3307 13.6117 11.1849 13.7549 11.1849 13.9346C11.1849 14.1117 11.3307 14.2575 11.5078 14.2575H16.2969C16.4739 14.2575 16.6198 14.1143 16.6198 13.9346ZM16.4609 7.17417C16.4609 6.99708 16.3177 6.85125 16.138 6.85125H7.28121C7.10413 6.85125 6.95829 6.99708 6.95829 7.17417C6.95829 7.35125 7.10152 7.49708 7.28121 7.49708H16.138C16.3151 7.49708 16.4609 7.35385 16.4609 7.17417ZM14.9297 3.79395C14.9297 3.61687 14.7864 3.47103 14.6067 3.47103H11.8333C11.6562 3.47103 11.5104 3.61687 11.5104 3.79395C11.5104 3.97103 11.6536 4.11687 11.8333 4.11687H14.6067C14.7838 4.11687 14.9297 3.97364 14.9297 3.79395Z" fill="white"/>
<path d="M27.6224 19.5259H29.5573C29.5182 19.7446 29.4974 19.9686 29.4974 20.1978C29.4974 20.4269 29.5182 20.6509 29.5573 20.8696H16.6041C16.6432 20.6509 16.664 20.4269 16.664 20.1978C16.664 19.9686 16.6432 19.7446 16.6041 19.5259H27.6224Z" fill="white"/>
<path d="M33.2265 19.4033C33.664 19.4033 34.0208 19.7601 34.0208 20.1976C34.0208 20.6351 33.664 20.9919 33.2265 20.9919C32.789 20.9919 32.4323 20.6351 32.4323 20.1976C32.4323 19.7601 32.789 19.4033 33.2265 19.4033Z" fill="white"/>
<path d="M40 20.1976C40 20.3773 39.9297 20.5466 39.802 20.6742C39.6744 20.8018 39.5078 20.8721 39.3255 20.8721H36.8932C36.9323 20.6533 36.9531 20.4294 36.9531 20.2002C36.9531 19.971 36.9323 19.7471 36.8932 19.5283H38.8281H39.3255C39.6979 19.5257 40 19.8278 40 20.1976Z" fill="white"/>
<path d="M33.2266 17.1143C34.9271 17.1143 36.3125 18.4971 36.3125 20.2002C36.3125 21.9007 34.9297 23.2861 33.2266 23.2861C31.5234 23.2861 30.1406 21.9033 30.1406 20.2002C30.1432 18.4971 31.526 17.1143 33.2266 17.1143ZM34.6667 20.1976C34.6667 19.4033 34.0208 18.7575 33.2266 18.7575C32.4323 18.7575 31.7865 19.4033 31.7865 20.1976C31.7865 20.9919 32.4323 21.6377 33.2266 21.6377C34.0208 21.6377 34.6667 20.9919 34.6667 20.1976Z" fill="white"/>
<path d="M36.3202 13.1509L30.1275 13.1978V7.77588H30.6379C32.1588 7.77588 33.5884 8.36703 34.664 9.44255C35.6588 10.4452 36.2421 11.7498 36.3202 13.1509Z" fill="white"/>
<path d="M38.5078 13.4712V18.8827H36.7161C36.1822 17.4738 34.8203 16.4712 33.2265 16.4712C31.6328 16.4712 30.2708 17.4764 29.7369 18.8827H27.9453V5.59619H30.6354C34.9765 5.59619 38.5078 9.12745 38.5078 13.4712ZM36.6536 13.7915C36.8307 13.7889 36.9739 13.6457 36.9739 13.4686C36.9739 11.7759 36.3151 10.1847 35.1171 8.98682C33.9192 7.7889 32.3281 7.13005 30.6354 7.13005H29.802C29.6249 7.13005 29.4791 7.27328 29.4791 7.45297V13.5207C29.4791 13.6066 29.513 13.69 29.5755 13.7499C29.6354 13.8098 29.7187 13.8436 29.802 13.8436H29.8046L36.6536 13.7915Z" fill="white"/>
<path d="M5.45052 13.9347C5.45052 14.1118 5.30729 14.2577 5.1276 14.2577H2.02343C1.84635 14.2577 1.6927 14.1196 1.6901 13.9399C1.68749 13.7603 1.83333 13.6118 2.01302 13.6118H5.1276C5.30729 13.6118 5.45052 13.7576 5.45052 13.9347Z" fill="white"/>
<path d="M5.45044 3.79411C5.45044 3.97119 5.30721 4.11703 5.12753 4.11703H0.333246C0.156163 4.11703 0.00251644 3.97901 -8.77272e-05 3.79932C-0.0026919 3.61963 0.143142 3.47119 0.32283 3.47119H5.12753C5.30721 3.47119 5.45044 3.61703 5.45044 3.79411Z" fill="white"/>
<path d="M4.90882 6.85156C5.0859 6.85156 5.23174 6.9974 5.23174 7.17448C5.23174 7.35156 5.08851 7.4974 4.90882 7.4974H1.63798C1.4609 7.4974 1.31506 7.35417 1.31506 7.17448C1.31506 6.9974 1.4609 6.85156 1.63798 6.85156H4.90882Z" fill="white"/>
<path d="M2.78634 10.2319C2.96343 10.2319 3.10926 10.3752 3.10926 10.5549C3.10926 10.7319 2.96603 10.8778 2.78634 10.8778H0.322795C0.145712 10.8778 -0.00012207 10.7319 -0.00012207 10.5549C-0.00012207 10.3778 0.143107 10.2319 0.322795 10.2319H2.78634Z" fill="white"/>
</svg>
