<svg width="30" height="32" viewBox="0 0 30 32" fill="none" xmlns="http://www.w3.org/2000/svg">
<path d="M3.3338 12.9644H5.53292V15.1635H3.3338V12.9644Z" fill="white"/>
<path d="M3.3338 18.0918H5.53292V20.2909H3.3338V18.0918Z" fill="white"/>
<path d="M14.5085 18.0918H16.7077V20.2909H14.5085V18.0918Z" fill="white"/>
<path d="M14.5085 23.2197H16.7077V25.4188H14.5085V23.2197Z" fill="white"/>
<path d="M8.92242 12.9644H11.1198V15.1635H8.92242V12.9644Z" fill="white"/>
<path d="M8.92242 23.2197H11.1198V25.4188H8.92242V23.2197Z" fill="white"/>
<path d="M20.5229 21.6619C20.6589 21.5259 20.8014 21.397 20.9504 21.2746H20.0285C19.7772 21.2746 19.549 21.1705 19.3834 21.0049H19.3816L19.3799 21.0031C19.2155 20.837 19.1114 20.6075 19.1114 20.358V18.0247C19.1114 17.7733 19.2155 17.5451 19.3799 17.3795L19.3834 17.376C19.5496 17.2098 19.7772 17.1075 20.0285 17.1075H22.3619C22.6114 17.1075 22.8415 17.2098 23.007 17.376L23.0088 17.3778V17.3795C23.175 17.5457 23.2784 17.7733 23.2784 18.0247V20.073C23.7811 19.9388 24.3109 19.8666 24.8555 19.8666C25.1169 19.8666 25.3753 19.8832 25.6284 19.9151V10.4351H-6.10352e-05V27.1363C-6.10352e-05 28.122 0.807682 28.9298 1.79341 28.9298H19.4774C18.9997 28.0582 18.73 27.0577 18.73 25.9951C18.7294 24.3021 19.4148 22.77 20.5229 21.6619ZM19.1114 12.8973C19.1114 12.646 19.2155 12.4178 19.3799 12.2522L19.3834 12.2486C19.5496 12.0825 19.7772 11.9802 20.0285 11.9802H22.3619C22.6114 11.9802 22.8415 12.0825 23.007 12.2486L23.0088 12.2504V12.2522C23.175 12.4183 23.2784 12.646 23.2784 12.8973V15.2307C23.2784 15.4802 23.1744 15.7102 23.0088 15.8758V15.8776H23.007C22.8409 16.0437 22.6114 16.1472 22.3619 16.1472H20.0285C19.7772 16.1472 19.549 16.0431 19.3834 15.8776H19.3816L19.3799 15.8758C19.2155 15.7096 19.1114 15.4802 19.1114 15.2307V12.8973ZM6.51688 25.4853C6.51688 25.7367 6.41458 25.9649 6.24842 26.1305V26.1322C6.08226 26.2984 5.85283 26.4019 5.59974 26.4019H3.26639C3.01686 26.4019 2.78683 26.2978 2.62126 26.1322H2.61949V26.1305C2.45333 25.9643 2.35103 25.7349 2.35103 25.4853V23.152C2.35103 22.9007 2.45333 22.6724 2.61949 22.5069V22.5051L2.62126 22.5033C2.78742 22.3372 3.01686 22.2349 3.26639 22.2349H5.59974C5.85283 22.2349 6.08226 22.3372 6.24842 22.5033V22.5051C6.41458 22.6713 6.51688 22.9007 6.51688 23.152V25.4853ZM6.51688 20.358C6.51688 20.6093 6.41458 20.8376 6.24842 21.0031V21.0049C6.08226 21.1711 5.85283 21.2746 5.59974 21.2746H3.26639C3.01686 21.2746 2.78683 21.1705 2.62126 21.0049H2.61949V21.0031C2.45333 20.837 2.35103 20.6075 2.35103 20.358V18.0247C2.35103 17.7733 2.45333 17.5451 2.61949 17.3795V17.3778L2.62126 17.376C2.78742 17.2098 3.01686 17.1075 3.26639 17.1075H5.59974C5.85283 17.1075 6.08226 17.2098 6.24842 17.376V17.3795C6.41458 17.5439 6.51688 17.7733 6.51688 18.0247V20.358ZM6.51688 15.2307C6.51688 15.482 6.41458 15.7102 6.24842 15.8758V15.8776C6.08226 16.0437 5.85283 16.1472 5.59974 16.1472H3.26639C3.01686 16.1472 2.78683 16.0431 2.62126 15.8776H2.61949V15.8758C2.45333 15.7096 2.35103 15.4802 2.35103 15.2307V12.8973C2.35103 12.646 2.45333 12.4178 2.61949 12.2522V12.2504L2.62126 12.2486C2.78742 12.0825 3.01686 11.9802 3.26639 11.9802H5.59974C5.85283 11.9802 6.08226 12.0843 6.24842 12.2486V12.2522C6.41458 12.4166 6.51688 12.646 6.51688 12.8973V15.2307ZM12.1037 25.4853C12.1037 25.7349 12.0014 25.9649 11.8352 26.1305L11.8334 26.1322C11.6661 26.2984 11.4378 26.4019 11.1883 26.4019H8.85319C8.60365 26.4019 8.3754 26.2978 8.20806 26.1322L8.20628 26.1305C8.04012 25.9643 7.93782 25.7349 7.93782 25.4853V23.152C7.93782 22.9007 8.04012 22.6724 8.20628 22.5069V22.5051H8.20806V22.5033C8.3754 22.3372 8.60365 22.2349 8.85319 22.2349H11.1883C11.4378 22.2349 11.6661 22.3372 11.8334 22.5033V22.5051H11.8352V22.5069C12.0014 22.673 12.1037 22.9007 12.1037 23.152V25.4853ZM12.1037 20.358C12.1037 20.6075 12.0014 20.8376 11.8352 21.0031L11.8334 21.0049C11.6661 21.1711 11.4378 21.2746 11.1883 21.2746H8.85319C8.60365 21.2746 8.3754 21.1705 8.20806 21.0049L8.20628 21.0031C8.04012 20.837 7.93782 20.6075 7.93782 20.358V18.0247C7.93782 17.7733 8.04012 17.5451 8.20628 17.3795L8.20806 17.3778V17.376C8.3754 17.2098 8.60365 17.1075 8.85319 17.1075H11.1883C11.4378 17.1075 11.6661 17.2098 11.8334 17.376V17.3778L11.8352 17.3795C12.0014 17.5457 12.1037 17.7733 12.1037 18.0247V20.358ZM12.1037 15.2307C12.1037 15.4802 12.0014 15.7102 11.8352 15.8758L11.8334 15.8776C11.6661 16.0437 11.4378 16.1472 11.1883 16.1472H8.85319C8.60365 16.1472 8.3754 16.0431 8.20806 15.8776L8.20628 15.8758C8.04012 15.7096 7.93782 15.4802 7.93782 15.2307V12.8973C7.93782 12.646 8.04012 12.4178 8.20628 12.2522L8.20806 12.2504V12.2486C8.3754 12.0825 8.60365 11.9802 8.85319 11.9802H11.1883C11.4378 11.9802 11.6661 12.0825 11.8334 12.2486V12.2504L11.8352 12.2522C12.0014 12.4183 12.1037 12.646 12.1037 12.8973V15.2307ZM17.6905 25.4853C17.6905 25.7349 17.5882 25.9649 17.422 26.1305V26.1322H17.4202C17.2529 26.2984 17.0246 26.4019 16.7751 26.4019H14.44C14.1904 26.4019 13.9622 26.2978 13.7948 26.1322L13.7931 26.1305C13.6269 25.9643 13.5246 25.7349 13.5246 25.4853V23.152C13.5246 22.9007 13.6269 22.6724 13.7931 22.5069V22.5051H13.7948V22.5033C13.9622 22.3372 14.1904 22.2349 14.44 22.2349H16.7751C17.0246 22.2349 17.2529 22.3372 17.4202 22.5033L17.422 22.5051V22.5069C17.5882 22.673 17.6905 22.9007 17.6905 23.152V25.4853ZM17.6905 20.358C17.6905 20.6075 17.5882 20.8376 17.422 21.0031V21.0049H17.4202C17.2529 21.1711 17.0246 21.2746 16.7751 21.2746H14.44C14.1904 21.2746 13.9622 21.1705 13.7948 21.0049L13.7931 21.0031C13.6269 20.837 13.5246 20.6075 13.5246 20.358V18.0247C13.5246 17.7733 13.6269 17.5451 13.7931 17.3795L13.7948 17.3778V17.376C13.9622 17.2098 14.1904 17.1075 14.44 17.1075H16.7751C17.0246 17.1075 17.2529 17.2098 17.4202 17.376L17.422 17.3778V17.3795C17.5882 17.5457 17.6905 17.7733 17.6905 18.0247V20.358ZM17.6905 15.2307C17.6905 15.4802 17.5882 15.7102 17.422 15.8758V15.8776H17.4202C17.2529 16.0437 17.0246 16.1472 16.7751 16.1472H14.44C14.1904 16.1472 13.9622 16.0431 13.7948 15.8776L13.7931 15.8758C13.6269 15.7096 13.5246 15.4802 13.5246 15.2307V12.8973C13.5246 12.646 13.6269 12.4178 13.7931 12.2522L13.7948 12.2504V12.2486C13.9622 12.0825 14.1904 11.9802 14.44 11.9802H16.7751C17.0246 11.9802 17.2529 12.0825 17.4202 12.2486L17.422 12.2504V12.2522C17.5882 12.4183 17.6905 12.646 17.6905 12.8973V15.2307Z" fill="white"/>
<path d="M20.0954 18.0918H22.2945V20.2909H20.0954V18.0918Z" fill="white"/>
<path d="M20.0954 12.9644H22.2945V15.1635H20.0954V12.9644Z" fill="white"/>
<path d="M3.3338 23.2197H5.53292V25.4188H3.3338V23.2197Z" fill="white"/>
<path d="M14.5085 12.9644H16.7077V15.1635H14.5085V12.9644Z" fill="white"/>
<path d="M8.92242 18.0918H11.1198V20.2909H8.92242V18.0918Z" fill="white"/>
<path d="M25.6284 5.09474C25.6284 4.10901 24.8206 3.30127 23.8349 3.30127H18.4574V5.24908C18.4574 6.06214 17.7969 6.72383 16.9827 6.72383C16.1684 6.72383 15.5079 6.06155 15.5079 5.24908V3.30127H10.1222V5.24908C10.1222 6.06214 9.45988 6.72383 8.64563 6.72383C7.83138 6.72383 7.17088 6.06155 7.17088 5.24908V3.30127H1.79341C0.807683 3.30127 -6.10352e-05 4.10901 -6.10352e-05 5.09474V9.45277H25.6289V5.09474H25.6284Z" fill="white"/>
<path d="M8.64562 5.74C8.91704 5.74 9.13819 5.52062 9.13819 5.24862V1.35536C9.13819 1.08217 8.91704 0.862793 8.64562 0.862793C8.37421 0.862793 8.15424 1.08217 8.15424 1.35536V5.24921C8.15424 5.52062 8.37421 5.74 8.64562 5.74Z" fill="white"/>
<path d="M16.9827 5.74C17.2541 5.74 17.4741 5.52062 17.4741 5.24862V1.35536C17.4741 1.08217 17.2547 0.862793 16.9827 0.862793C16.7113 0.862793 16.4901 1.08217 16.4901 1.35536V5.24921C16.4901 5.52062 16.7113 5.74 16.9827 5.74Z" fill="white"/>
<path d="M28.4933 22.3578C27.5631 21.4276 26.2758 20.8511 24.8561 20.8511C23.4363 20.8511 22.1508 21.4276 21.2188 22.3578C20.2887 23.2879 19.7122 24.5734 19.7122 25.995C19.7122 27.4147 20.2887 28.7003 21.2188 29.6322C22.1508 30.5623 23.4363 31.1377 24.8561 31.1377C26.2758 31.1377 27.5631 30.5629 28.4933 29.6322C29.4234 28.7003 30 27.4147 30 25.995C30 24.5734 29.4234 23.2879 28.4933 22.3578ZM28.3555 26.4864H24.8555C24.584 26.4864 24.3641 26.267 24.3641 25.995V22.4949C24.3641 22.2235 24.5835 22.0036 24.8555 22.0036C25.1269 22.0036 25.3469 22.2229 25.3469 22.4949V25.5018H28.3555C28.6269 25.5018 28.8469 25.723 28.8469 25.9944C28.8469 26.2664 28.6275 26.4864 28.3555 26.4864Z" fill="white"/>
</svg>
