<svg width="31" height="32" viewBox="0 0 31 32" fill="none" xmlns="http://www.w3.org/2000/svg">
<path d="M30.0896 16.5632C30.5763 16.0635 30.887 15.4189 30.9746 14.7268C31.0622 14.0348 30.922 13.3331 30.5752 12.7279L24.7098 2.56988C24.2851 1.836 23.5867 1.3006 22.7677 1.08119C21.9487 0.86179 21.0761 0.976313 20.3414 1.39962L2.99848 11.4107C2.92739 11.4541 2.87371 11.5209 2.8467 11.5997C2.81969 11.6785 2.82106 11.7642 2.85057 11.842C2.88008 11.9199 2.93588 11.985 3.00831 12.0261C3.08074 12.0671 3.16525 12.0816 3.24721 12.0669C3.50002 12.017 3.75706 11.9916 4.01475 11.9911H25.5721C26.6084 11.9921 27.602 12.4043 28.3348 13.1371C29.0677 13.8699 29.4798 14.8635 29.4808 15.8999V16.3144C29.4817 16.3846 29.5033 16.4528 29.5428 16.5108C29.5823 16.5687 29.638 16.6138 29.7029 16.6403C29.7678 16.6668 29.8391 16.6736 29.9079 16.6599C29.9766 16.6462 30.0398 16.6126 30.0896 16.5632ZM19.5929 11.2804H12.2018L24.7382 4.04099L26.586 7.24142L19.5929 11.2804Z" fill="white"/>
<path d="M4.01471 31.1793H25.572C26.4199 31.1784 27.2328 30.8412 27.8323 30.2416C28.4319 29.6421 28.7691 28.8292 28.7701 27.9813V15.8997C28.7691 15.0518 28.4319 14.2389 27.8323 13.6394C27.2328 13.0398 26.4199 12.7026 25.572 12.7017H4.01471C3.16682 12.7026 2.35393 13.0398 1.75438 13.6394C1.15483 14.2389 0.817591 15.0518 0.81665 15.8997L0.81665 27.9813C0.817591 28.8292 1.15483 29.6421 1.75438 30.2416C2.35393 30.8412 3.16682 31.1784 4.01471 31.1793ZM21.6633 25.3755H24.7429C24.9628 25.3755 25.1737 25.4628 25.3292 25.6183C25.4847 25.7738 25.572 25.9847 25.572 26.2046C25.572 26.4245 25.4847 26.6354 25.3292 26.7909C25.1737 26.9464 24.9628 27.0337 24.7429 27.0337H21.6633C21.4434 27.0337 21.2325 26.9464 21.077 26.7909C20.9215 26.6354 20.8341 26.4245 20.8341 26.2046C20.8341 25.9847 20.9215 25.7738 21.077 25.6183C21.2325 25.4628 21.4434 25.3755 21.6633 25.3755ZM13.1351 25.3755H16.4516C16.6715 25.3755 16.8824 25.4628 17.0379 25.6183C17.1934 25.7738 17.2807 25.9847 17.2807 26.2046C17.2807 26.4245 17.1934 26.6354 17.0379 26.7909C16.8824 26.9464 16.6715 27.0337 16.4516 27.0337H13.1351C12.9152 27.0337 12.7043 26.9464 12.5488 26.7909C12.3933 26.6354 12.306 26.4245 12.306 26.2046C12.306 25.9847 12.3933 25.7738 12.5488 25.6183C12.7043 25.4628 12.9152 25.3755 13.1351 25.3755ZM4.01471 17.3211C4.01471 16.9441 4.16446 16.5826 4.43102 16.316C4.69758 16.0495 5.0591 15.8997 5.43607 15.8997H7.09433C7.47129 15.8997 7.83282 16.0495 8.09938 16.316C8.36594 16.5826 8.51569 16.9441 8.51569 17.3211V18.9793C8.51569 19.3563 8.36594 19.7178 8.09938 19.9844C7.83282 20.2509 7.47129 20.4007 7.09433 20.4007H5.43607C5.0591 20.4007 4.69758 20.2509 4.43102 19.9844C4.16446 19.7178 4.01471 19.3563 4.01471 18.9793V17.3211ZM4.84384 25.3755H7.92345C8.14335 25.3755 8.35424 25.4628 8.50973 25.6183C8.66523 25.7738 8.75258 25.9847 8.75258 26.2046C8.75258 26.4245 8.66523 26.6354 8.50973 26.7909C8.35424 26.9464 8.14335 27.0337 7.92345 27.0337H4.84384C4.62394 27.0337 4.41305 26.9464 4.25756 26.7909C4.10207 26.6354 4.01471 26.4245 4.01471 26.2046C4.01471 25.9847 4.10207 25.7738 4.25756 25.6183C4.41305 25.4628 4.62394 25.3755 4.84384 25.3755Z" fill="white"/>
</svg>
