<svg width="81" height="114" viewBox="0 0 81 114" fill="none" xmlns="http://www.w3.org/2000/svg">
<path d="M40.5839 0C40.5839 0 0.5 46.0631 0.5 72.9286C0.5 95.6118 18.4461 114 40.5839 114C62.7216 114 80.6677 95.6118 80.6677 72.9286C80.6677 46.0631 40.5839 0 40.5839 0Z" fill="#03A4FF"/>
<path d="M40.5839 0C40.5839 0 0.5 46.0631 0.5 72.9286C0.5 95.6118 18.4461 114 40.5839 114C62.7216 114 80.6677 95.6118 80.6677 72.9286C80.6677 46.0631 40.5839 0 40.5839 0Z" fill="url(#paint0_radial_97_1040)"/>
<path d="M57.7488 57.4871C56.611 56.3471 54.7634 56.3478 53.6241 57.4871L35.06 76.063L26.809 67.8072C25.6697 66.6672 23.8229 66.6672 22.6836 67.8072C21.5443 68.9472 21.5443 70.7951 22.6836 71.9351L32.9968 82.2546C33.5661 82.8242 34.3126 83.1097 35.0592 83.1097C35.8058 83.1097 36.553 82.8249 37.1223 82.2546L57.7488 61.6149C58.8881 60.4757 58.8881 58.627 57.7488 57.4871Z" fill="white"/>
<defs>
<radialGradient id="paint0_radial_97_1040" cx="0" cy="0" r="1" gradientUnits="userSpaceOnUse" gradientTransform="translate(40.5838 57) rotate(-54.1131) scale(77.1636 34.3008)">
<stop stop-color="#43BBFF"/>
<stop offset="1" stop-color="#00A3FF"/>
</radialGradient>
</defs>
</svg>
