<svg width="18" height="18" viewBox="0 0 18 18" fill="none" xmlns="http://www.w3.org/2000/svg">
<path fill-rule="evenodd" clip-rule="evenodd" d="M8.2046 0.329389C8.41558 0.118481 8.70168 0 9 0C9.29832 0 9.58442 0.118481 9.7954 0.329389L17.6706 8.20449C17.8279 8.36183 17.935 8.56227 17.9784 8.78047C18.0218 8.99867 17.9995 9.22483 17.9144 9.43037C17.8292 9.63591 17.6851 9.8116 17.5001 9.93522C17.3152 10.0588 17.0977 10.1248 16.8752 10.1249H15.7502V16.875C15.7502 17.1734 15.6316 17.4595 15.4207 17.6705C15.2097 17.8815 14.9235 18 14.6251 18H12.3751C12.0767 18 11.7906 17.8815 11.5796 17.6705C11.3686 17.4595 11.2501 17.1734 11.2501 16.875V13.4999C11.2501 13.2016 11.1315 12.9154 10.9205 12.7044C10.7096 12.4935 10.4234 12.3749 10.125 12.3749H7.87497C7.57659 12.3749 7.29044 12.4935 7.07945 12.7044C6.86847 12.9154 6.74994 13.2016 6.74994 13.4999V16.875C6.74994 17.1734 6.63141 17.4595 6.42043 17.6705C6.20944 17.8815 5.92329 18 5.62491 18H3.37485C3.07647 18 2.79032 17.8815 2.57933 17.6705C2.36835 17.4595 2.24982 17.1734 2.24982 16.875V10.1249H1.12479C0.902315 10.1248 0.684849 10.0588 0.499883 9.93522C0.314917 9.8116 0.170756 9.63591 0.0856249 9.43037C0.000493833 9.22483 -0.0217852 8.99867 0.0216045 8.78047C0.0649941 8.56227 0.172104 8.36183 0.329394 8.20449L8.2046 0.329389Z" fill="#181E26"/>
</svg>
