<svg width="32" height="30" viewBox="0 0 32 30" fill="none" xmlns="http://www.w3.org/2000/svg">
<path d="M29.3332 24.1663C29.9752 24.1667 30.5925 24.414 31.0571 24.857C31.5218 25.3001 31.7982 25.9049 31.829 26.5462C31.8599 27.1875 31.6429 27.8161 31.2229 28.3017C30.8029 28.7873 30.2122 29.0927 29.5732 29.1547L29.3332 29.1663H2.6665C2.02448 29.166 1.40718 28.9187 0.942526 28.4757C0.477873 28.0326 0.201484 27.4278 0.17063 26.7865C0.139776 26.1452 0.356824 25.5166 0.776796 25.031C1.19677 24.5454 1.78747 24.24 2.4265 24.178L2.6665 24.1663H29.3332ZM29.3332 12.4997C29.9962 12.4997 30.6321 12.7631 31.1009 13.2319C31.5698 13.7007 31.8332 14.3366 31.8332 14.9997C31.8332 15.6627 31.5698 16.2986 31.1009 16.7674C30.6321 17.2363 29.9962 17.4997 29.3332 17.4997H2.6665C2.00346 17.4997 1.36758 17.2363 0.898737 16.7674C0.429896 16.2986 0.166504 15.6627 0.166504 14.9997C0.166504 14.3366 0.429896 13.7007 0.898737 13.2319C1.36758 12.7631 2.00346 12.4997 2.6665 12.4997H29.3332ZM29.3332 0.833008C29.9962 0.833008 30.6321 1.0964 31.1009 1.56524C31.5698 2.03408 31.8332 2.66997 31.8332 3.33301C31.8332 3.99605 31.5698 4.63193 31.1009 5.10078C30.6321 5.56962 29.9962 5.83301 29.3332 5.83301H2.6665C2.00346 5.83301 1.36758 5.56962 0.898737 5.10078C0.429896 4.63193 0.166504 3.99605 0.166504 3.33301C0.166504 2.66997 0.429896 2.03408 0.898737 1.56524C1.36758 1.0964 2.00346 0.833008 2.6665 0.833008H29.3332Z" fill="black"/>
</svg>
