<svg width="21" height="20" viewBox="0 0 21 20" fill="none" xmlns="http://www.w3.org/2000/svg">
<path d="M14.517 0H6.447C4.87015 0.00185307 3.35844 0.629143 2.24353 1.74424C1.12862 2.85933 0.501588 4.37115 0.5 5.948L0.5 14.018C0.501853 15.5948 1.12914 17.1066 2.24424 18.2215C3.35933 19.3364 4.87115 19.9634 6.448 19.965H14.518C16.0948 19.9631 17.6066 19.3359 18.7215 18.2208C19.8364 17.1057 20.4634 15.5938 20.465 14.017V5.947C20.4631 4.37015 19.8359 2.85844 18.7208 1.74353C17.6057 0.628623 16.0938 0.00158794 14.517 0ZM18.457 14.017C18.457 14.5344 18.3551 15.0468 18.1571 15.5248C17.9591 16.0028 17.6689 16.4371 17.303 16.803C16.9371 17.1689 16.5028 17.4591 16.0248 17.6571C15.5468 17.8551 15.0344 17.957 14.517 17.957H6.447C5.40222 17.9567 4.40032 17.5415 3.66165 16.8026C2.92297 16.0638 2.508 15.0618 2.508 14.017V5.947C2.50827 4.90222 2.92349 3.90032 3.66235 3.16165C4.40122 2.42297 5.40322 2.008 6.448 2.008H14.518C15.5628 2.00827 16.5647 2.42349 17.3034 3.16235C18.042 3.90122 18.457 4.90322 18.457 5.948V14.017Z" fill="white"/>
<path d="M10.4819 4.81885C9.11338 4.82096 7.80148 5.36563 6.83385 6.33345C5.86621 7.30127 5.3218 8.61328 5.31995 9.98185C5.32153 11.3508 5.86597 12.6632 6.83385 13.6312C7.80172 14.5993 9.11403 15.144 10.4829 15.1458C11.852 15.1443 13.1646 14.5997 14.1327 13.6316C15.1008 12.6635 15.6454 11.3509 15.6469 9.98185C15.6448 8.61293 15.0999 7.30073 14.1316 6.33304C13.1634 5.36535 11.8509 4.82117 10.4819 4.81985V4.81885ZM10.4819 13.1378C9.64519 13.1378 8.8427 12.8054 8.25102 12.2138C7.65935 11.6221 7.32695 10.8196 7.32695 9.98285C7.32695 9.14609 7.65935 8.3436 8.25102 7.75193C8.8427 7.16025 9.64519 6.82785 10.4819 6.82785C11.3187 6.82785 12.1212 7.16025 12.7129 7.75193C13.3045 8.3436 13.6369 9.14609 13.6369 9.98285C13.6369 10.8196 13.3045 11.6221 12.7129 12.2138C12.1212 12.8054 11.3187 13.1378 10.4819 13.1378Z" fill="white"/>
<path d="M15.6559 6.09509C16.3391 6.09509 16.8929 5.54127 16.8929 4.85809C16.8929 4.17492 16.3391 3.62109 15.6559 3.62109C14.9728 3.62109 14.4189 4.17492 14.4189 4.85809C14.4189 5.54127 14.9728 6.09509 15.6559 6.09509Z" fill="white"/>
</svg>
