<svg width="23" height="27" viewBox="0 0 23 27" fill="none" xmlns="http://www.w3.org/2000/svg">
<path d="M11.5 13.4998C12.2333 13.4998 12.8613 13.2389 13.384 12.7172C13.9066 12.1954 14.1675 11.5674 14.1666 10.8332C14.1658 10.0989 13.9049 9.47139 13.384 8.9505C12.8631 8.42962 12.2351 8.16828 11.5 8.1665C10.7649 8.16473 10.1373 8.42606 9.61731 8.9505C9.09731 9.47495 8.83598 10.1025 8.83331 10.8332C8.83065 11.5638 9.09198 12.1918 9.61731 12.7172C10.1426 13.2425 10.7702 13.5034 11.5 13.4998ZM11.5 26.8332C7.9222 23.7887 5.2502 20.9612 3.48398 18.3505C1.71776 15.7398 0.834202 13.3229 0.833313 11.0998C0.833313 7.7665 1.90576 5.11095 4.05065 3.13317C6.19554 1.15539 8.67865 0.166504 11.5 0.166504C14.3213 0.166504 16.8049 1.15539 18.9506 3.13317C21.0964 5.11095 22.1684 7.7665 22.1666 11.0998C22.1666 13.3221 21.2835 15.7389 19.5173 18.3505C17.7511 20.9621 15.0786 23.7896 11.5 26.8332Z" fill="#03A4FF"/>
</svg>
