<svg width="132" height="50" viewBox="0 0 132 50" fill="none" xmlns="http://www.w3.org/2000/svg">
<path d="M0 40V12H11.8939C14.0496 12 15.9101 12.4102 17.4753 13.2305C19.05 14.0417 20.2637 15.1764 21.1166 16.6348C21.9695 18.084 22.396 19.7702 22.396 21.6934C22.396 23.6257 21.9602 25.3164 21.0885 26.7656C20.2262 28.2057 18.9937 29.3223 17.391 30.1152C15.7883 30.9082 13.8856 31.3047 11.683 31.3047H4.34423V25.9727H10.3896C11.4393 25.9727 12.3157 25.7949 13.0186 25.4395C13.731 25.084 14.2699 24.5872 14.6354 23.9492C15.001 23.3021 15.1837 22.5501 15.1837 21.6934C15.1837 20.8275 15.001 20.0801 14.6354 19.4512C14.2699 18.8132 13.731 18.321 13.0186 17.9746C12.3063 17.6283 11.43 17.4551 10.3896 17.4551H6.95921V40H0Z" fill="url(#paint0_linear_104_1091)"/>
<path d="M25.8264 40V12H45.9027V17.4961H32.7856V23.2383H44.8763V28.748H32.7856V34.5039H45.9027V40H25.8264Z" fill="url(#paint1_linear_104_1091)"/>
<path d="M50.2609 40V12H62.1549C64.3106 12 66.1711 12.3783 67.7363 13.1348C69.3109 13.8822 70.5247 14.9577 71.3776 16.3613C72.2305 17.7559 72.6569 19.4102 72.6569 21.3242C72.6569 23.2656 72.2211 24.9154 71.3494 26.2734C70.4778 27.6224 69.2406 28.6523 67.6379 29.3633C66.0351 30.0651 64.1372 30.416 61.944 30.416H54.4224V25.084H60.6505C61.7003 25.084 62.5766 24.9518 63.2796 24.6875C63.9919 24.4141 64.5308 24.0039 64.8964 23.457C65.2619 22.901 65.4447 22.1901 65.4447 21.3242C65.4447 20.4583 65.2619 19.7428 64.8964 19.1777C64.5308 18.6035 63.9919 18.1751 63.2796 17.8926C62.5673 17.6009 61.6909 17.4551 60.6505 17.4551H57.2201V40H50.2609ZM66.471 27.2031L73.6411 40H66.0492L59.0197 27.2031H66.471Z" fill="url(#paint2_linear_104_1091)"/>
<path d="M113.133 12L118.391 20.8457H118.616L123.93 12H131.719L123.03 26L132 40H124.014L118.616 31.0586H118.391L112.992 40H105.063L113.99 26L105.288 12H113.133Z" fill="url(#paint3_linear_104_1091)"/>
<path d="M90 5C90 5 76 21.1625 76 30.589C76 38.548 82.268 45 90 45C97.732 45 104 38.548 104 30.589C104 21.1625 90 5 90 5ZM92.7968 39.9701C96.5261 38.3639 99.186 34.1756 99.186 29.2599C99.186 25.5891 96.8249 20.6302 94.4257 16.5365C96.8279 20.1294 100.513 26.3222 100.513 30.5026C100.513 35.583 97.0921 39.7296 92.7968 39.9701Z" fill="#03A4FF"/>
<defs>
<linearGradient id="paint0_linear_104_1091" x1="20.9815" y1="9.69697" x2="70.7239" y2="62.5767" gradientUnits="userSpaceOnUse">
<stop stop-color="#181E26"/>
<stop offset="0.49" stop-color="#3C424A"/>
<stop offset="1" stop-color="#181E26"/>
</linearGradient>
<linearGradient id="paint1_linear_104_1091" x1="20.9815" y1="9.69697" x2="70.7239" y2="62.5767" gradientUnits="userSpaceOnUse">
<stop stop-color="#181E26"/>
<stop offset="0.49" stop-color="#3C424A"/>
<stop offset="1" stop-color="#181E26"/>
</linearGradient>
<linearGradient id="paint2_linear_104_1091" x1="20.9815" y1="9.69697" x2="70.7239" y2="62.5767" gradientUnits="userSpaceOnUse">
<stop stop-color="#181E26"/>
<stop offset="0.49" stop-color="#3C424A"/>
<stop offset="1" stop-color="#181E26"/>
</linearGradient>
<linearGradient id="paint3_linear_104_1091" x1="20.9815" y1="9.69697" x2="70.7239" y2="62.5767" gradientUnits="userSpaceOnUse">
<stop stop-color="#181E26"/>
<stop offset="0.49" stop-color="#3C424A"/>
<stop offset="1" stop-color="#181E26"/>
</linearGradient>
</defs>
</svg>
