<svg width="21" height="16" viewBox="0 0 21 16" fill="none" xmlns="http://www.w3.org/2000/svg">
<path d="M1.88764 14.7059C0.707865 13.4118 0 12 0 9.64706C0 5.52941 2.94944 1.88235 7.07865 0L8.14045 1.52941C4.24719 3.64706 3.42135 6.35294 3.18539 8.11765C3.77528 7.76471 4.60112 7.64706 5.42697 7.76471C7.55056 8 9.20225 9.64706 9.20225 11.8824C9.20225 12.9412 8.73034 14 8.02247 14.8235C7.19663 15.6471 6.25281 16 5.07303 16C3.77528 16 2.59551 15.4118 1.88764 14.7059ZM13.6854 14.7059C12.5056 13.4118 11.7978 12 11.7978 9.64706C11.7978 5.52941 14.7472 1.88235 18.8764 0L19.9382 1.52941C16.0449 3.64706 15.2191 6.35294 14.9831 8.11765C15.573 7.76471 16.3989 7.64706 17.2247 7.76471C19.3483 8 21 9.64706 21 11.8824C21 12.9412 20.5281 14 19.8202 14.8235C19.1124 15.6471 18.0506 16 16.8708 16C15.573 16 14.3933 15.4118 13.6854 14.7059Z" fill="white"/>
</svg>
