<svg width="10" height="57" viewBox="0 0 10 57" fill="none" xmlns="http://www.w3.org/2000/svg">
<path d="M8.77778 0L8.22222 40.6512H1.77778L1.22222 0H8.77778ZM5 57C3.62963 57 2.4537 56.5121 1.47222 55.5363C0.490741 54.5606 0 53.3915 0 52.0291C0 50.6667 0.490741 49.4976 1.47222 48.5218C2.4537 47.546 3.62963 47.0581 5 47.0581C6.37037 47.0581 7.5463 47.546 8.52778 48.5218C9.50926 49.4976 10 50.6667 10 52.0291C10 52.9312 9.76852 53.7597 9.30556 54.5145C8.86111 55.2694 8.25926 55.8769 7.5 56.3372C6.75926 56.7791 5.92593 57 5 57Z" fill="#03A4FF"/>
</svg>
